HIERARCHY
ROOT Hips
{
    OFFSET 0.000000 0.000000 0.000000
    CHANNELS 6 Xposition Yposition Zposition Zrotation Xrotation Yrotation
    JOINT Spine
    {
        OFFSET 0.000005 10.316801 0.000003
        CHANNELS 3 Zrotation Xrotation Yrotation
        JOINT Spine1
        {
            OFFSET 0.000001 26.008713 -0.000000
            CHANNELS 3 Zrotation Xrotation Yrotation
            JOINT Neck
            {
                OFFSET -0.000003 24.799356 -0.000002
                CHANNELS 3 Zrotation Xrotation Yrotation
                JOINT Head
                {
                    OFFSET 0.000020 14.500551 2.035182
                    CHANNELS 3 Zrotation Xrotation Yrotation
                    End Site
                    {
                        OFFSET 0.000000 20.351660 0.000000
                    }
                }
            }
            JOINT LeftShoulder
            {
                OFFSET 4.036561 20.304798 -0.371914
                CHANNELS 3 Zrotation Xrotation Yrotation
                JOINT LeftArm
                {
                    OFFSET 12.502599 0.000005 -0.000001
                    CHANNELS 3 Zrotation Xrotation Yrotation
                    JOINT LeftForeArm
                    {
                        OFFSET 31.806910 0.000001 -0.000001
                        CHANNELS 3 Zrotation Xrotation Yrotation
                        JOINT LeftHand
                        {
                            OFFSET 24.843203 -0.000000 -0.000007
                            CHANNELS 3 Zrotation Xrotation Yrotation
                            JOINT LeftHandThumb1
                            {
                                OFFSET 2.126742 -2.416762 3.383460
                                CHANNELS 3 Zrotation Xrotation Yrotation
                                JOINT LeftHandThumb2
                                {
                                    OFFSET 3.212131 -0.000002 -0.000001
                                    CHANNELS 3 Zrotation Xrotation Yrotation
                                    JOINT LeftHandThumb3
                                    {
                                        OFFSET 2.745434 -0.000004 0.000001
                                        CHANNELS 3 Zrotation Xrotation Yrotation
                                        End Site
                                        {
                                            OFFSET 2.793713 0.000000 0.000000
                                        }
                                    }
                                }
                            }
                            JOINT LeftHandIndex1
                            {
                                OFFSET 8.700332 -0.000004 3.383458
                                CHANNELS 3 Zrotation Xrotation Yrotation
                                JOINT LeftHandIndex2
                                {
                                    OFFSET 4.833528 -0.000004 -0.000002
                                    CHANNELS 3 Zrotation Xrotation Yrotation
                                    JOINT LeftHandIndex3
                                    {
                                        OFFSET 2.416752 -0.000002 0.000000
                                        CHANNELS 3 Zrotation Xrotation Yrotation
                                        End Site
                                        {
                                            OFFSET 2.459254 0.000000 0.000000
                                        }
                                    }
                                }
                            }
                            JOINT LeftHandMiddle1
                            {
                                OFFSET 8.700323 0.000003 1.121382
                                CHANNELS 3 Zrotation Xrotation Yrotation
                                JOINT LeftHandMiddle2
                                {
                                    OFFSET 5.316860 -0.000001 -0.000002
                                    CHANNELS 3 Zrotation Xrotation Yrotation
                                    JOINT LeftHandMiddle3
                                    {
                                        OFFSET 2.900108 -0.000000 0.000000
                                        CHANNELS 3 Zrotation Xrotation Yrotation
                                        End Site
                                        {
                                            OFFSET 2.951103 0.000000 0.000000
                                        }
                                    }
                                }
                            }
                            JOINT LeftHandRing1
                            {
                                OFFSET 8.216992 0.000004 -1.121380
                                CHANNELS 3 Zrotation Xrotation Yrotation
                                JOINT LeftHandRing2
                                {
                                    OFFSET 4.833528 -0.000004 -0.000004
                                    CHANNELS 3 Zrotation Xrotation Yrotation
                                    JOINT LeftHandRing3
                                    {
                                        OFFSET 2.416752 -0.000002 -0.000001
                                        CHANNELS 3 Zrotation Xrotation Yrotation
                                        End Site
                                        {
                                            OFFSET 2.459254 0.000000 0.000000
                                        }
                                    }
                                }
                            }
                            JOINT LeftHandPinky1
                            {
                                OFFSET 7.733627 -0.000001 -3.383464
                                CHANNELS 3 Zrotation Xrotation Yrotation
                                JOINT LeftHandPinky2
                                {
                                    OFFSET 3.866818 0.000003 0.000001
                                    CHANNELS 3 Zrotation Xrotation Yrotation
                                    JOINT LeftHandPinky3
                                    {
                                        OFFSET 1.933421 -0.000004 -0.000004
                                        CHANNELS 3 Zrotation Xrotation Yrotation
                                        End Site
                                        {
                                            OFFSET 1.967405 0.000000 0.000000
                                        }
                                    }
                                }
                            }
                        }
                    }
                }
            }
            JOINT RightShoulder
            {
                OFFSET -4.036570 20.304804 -0.371909
                CHANNELS 3 Zrotation Xrotation Yrotation
                JOINT RightArm
                {
                    OFFSET -12.502611 -0.000002 -0.000006
                    CHANNELS 3 Zrotation Xrotation Yrotation
                    JOINT RightForeArm
                    {
                        OFFSET -31.806902 0.000000 -0.000005
                        CHANNELS 3 Zrotation Xrotation Yrotation
                        JOINT RightHand
                        {
                            OFFSET -24.843195 0.000003 -0.000004
                            CHANNELS 3 Zrotation Xrotation Yrotation
                            JOINT RightHandThumb1
                            {
                                OFFSET -2.126753 -2.416759 3.383456
                                CHANNELS 3 Zrotation Xrotation Yrotation
                                JOINT RightHandThumb2
                                {
                                    OFFSET -3.212128 -0.000001 0.000004
                                    CHANNELS 3 Zrotation Xrotation Yrotation
                                    JOINT RightHandThumb3
                                    {
                                        OFFSET -2.745447 -0.000007 -0.000007
                                        CHANNELS 3 Zrotation Xrotation Yrotation
                                        End Site
                                        {
                                            OFFSET -2.793713 0.000000 0.000000
                                        }
                                    }
                                }
                            }
                            JOINT RightHandIndex1
                            {
                                OFFSET -8.700329 -0.000002 3.383458
                                CHANNELS 3 Zrotation Xrotation Yrotation
                                JOINT RightHandIndex2
                                {
                                    OFFSET -4.833517 -0.000003 -0.000001
                                    CHANNELS 3 Zrotation Xrotation Yrotation
                                    JOINT RightHandIndex3
                                    {
                                        OFFSET -2.416758 -0.000002 -0.000001
                                        CHANNELS 3 Zrotation Xrotation Yrotation
                                        End Site
                                        {
                                            OFFSET -2.459254 0.000000 0.000000
                                        }
                                    }
                                }
                            }
                            JOINT RightHandMiddle1
                            {
                                OFFSET -8.700332 0.000004 1.121380
                                CHANNELS 3 Zrotation Xrotation Yrotation
                                JOINT RightHandMiddle2
                                {
                                    OFFSET -5.316864 -0.000003 0.000007
                                    CHANNELS 3 Zrotation Xrotation Yrotation
                                    JOINT RightHandMiddle3
                                    {
                                        OFFSET -2.900104 0.000000 0.000006
                                        CHANNELS 3 Zrotation Xrotation Yrotation
                                        End Site
                                        {
                                            OFFSET -2.951103 0.000000 0.000000
                                        }
                                    }
                                }
                            }
                            JOINT RightHandRing1
                            {
                                OFFSET -8.216980 -0.000005 -1.121383
                                CHANNELS 3 Zrotation Xrotation Yrotation
                                JOINT RightHandRing2
                                {
                                    OFFSET -4.833517 -0.000003 -0.000001
                                    CHANNELS 3 Zrotation Xrotation Yrotation
                                    JOINT RightHandRing3
                                    {
                                        OFFSET -2.416758 -0.000002 -0.000001
                                        CHANNELS 3 Zrotation Xrotation Yrotation
                                        End Site
                                        {
                                            OFFSET -2.459254 0.000000 0.000000
                                        }
                                    }
                                }
                            }
                            JOINT RightHandPinky1
                            {
                                OFFSET -7.733637 0.000001 -3.383470
                                CHANNELS 3 Zrotation Xrotation Yrotation
                                JOINT RightHandPinky2
                                {
                                    OFFSET -3.866809 -0.000001 0.000001
                                    CHANNELS 3 Zrotation Xrotation Yrotation
                                    JOINT RightHandPinky3
                                    {
                                        OFFSET -1.933413 -0.000002 -0.000008
                                        CHANNELS 3 Zrotation Xrotation Yrotation
                                        End Site
                                        {
                                            OFFSET -1.967405 0.000000 0.000000
                                        }
                                    }
                                }
                            }
                        }
                    }
                }
            }
        }
    }
    JOINT LeftUpLeg
    {
        OFFSET 10.175808 -0.000002 0.000006
        CHANNELS 3 Zrotation Xrotation Yrotation
        JOINT LeftLeg
        {
            OFFSET -0.000002 -42.882900 -0.000002
            CHANNELS 3 Zrotation Xrotation Yrotation
            JOINT LeftFoot
            {
                OFFSET -0.000004 -39.006802 -0.000003
                CHANNELS 3 Zrotation Xrotation Yrotation
                JOINT LeftToeBase
                {
                    OFFSET 0.000001 -6.614292 15.263705
                    CHANNELS 3 Zrotation Xrotation Yrotation
                    End Site
                    {
                        OFFSET 0.000000 0.000000 4.070332
                    }
                }
            }
        }
    }
    JOINT RightUpLeg
    {
        OFFSET -10.175808 0.000002 -0.000006
        CHANNELS 3 Zrotation Xrotation Yrotation
        JOINT RightLeg
        {
            OFFSET -0.000002 -42.882900 -0.000002
            CHANNELS 3 Zrotation Xrotation Yrotation
            JOINT RightFoot
            {
                OFFSET -0.000003 -39.006798 -0.000001
                CHANNELS 3 Zrotation Xrotation Yrotation
                JOINT RightToeBase
                {
                    OFFSET -0.000006 -6.614290 15.263698
                    CHANNELS 3 Zrotation Xrotation Yrotation
                    End Site
                    {
                        OFFSET 0.000000 0.000000 4.070332
                    }
                }
            }
        }
    }
}
MOTION
Frames:    4
Frame Time:    0.002778
31.310474    87.734406    216.800812    -0.554650    -1.782870    -36.562836    0.654267    7.012695    0.597189    3.271285    7.001836    0.277865    4.339169    13.432156    8.759181    4.339170    13.432149    8.759176    -2.474991    -1.818267    3.058896    -47.682182    34.250744    -37.184261    -5.479378    -10.576610    -143.439819    -8.126891    -1.140241    8.300910    47.448212    38.866398    -34.355053    -35.000034    -0.000001    0.000000    -0.000000    0.000000    -0.000000    -0.000002    10.000007    -0.000001    -0.000000    0.000000    -0.000000    -0.000000    0.000000    -0.000000    -0.000000    0.000000    -0.000000    -0.000000    0.000000    -0.000000    -0.000000    0.000000    -0.000000    -0.000000    0.000000    -0.000000    -0.000000    0.000000    -0.000000    -0.000000    0.000000    -0.000000    0.000002    -9.999997    0.000001    -0.000000    0.000000    -0.000000    -0.000000    0.000000    -0.000000    2.411634    -1.579862    4.643057    46.930477    16.701748    34.347363    -34.576832    -15.302853    70.784798    1.940805    -2.018615    -52.327133    -47.448204    38.866402    34.355042    35.000015    0.000003    0.000003    -0.000000    0.000000    -0.000000    0.000001    9.999991    -0.000001    -0.000000    0.000000    -0.000000    -0.000000    0.000000    -0.000000    -0.000000    0.000000    -0.000000    -0.000000    0.000000    -0.000000    -0.000000    0.000000    -0.000000    -0.000000    0.000000    -0.000000    -0.000000    0.000000    -0.000000    -0.000000    0.000000    -0.000000    -0.000001    -9.999993    -0.000000    -0.000000    0.000000    -0.000000    -0.000000    0.000000    -0.000000    4.484170    -14.341483    1.403450    -0.000002    53.197510    0.000000    -8.337325    -39.228233    15.469602    0.000000    0.448649    0.000001    -22.212532    -20.764608    -0.230875    0.000004    34.869591    -0.000004    20.065117    -12.243639    -1.607270    0.000000    1.820032    0.000001    
31.403917    87.804062    216.757660    -0.453530    -1.706466    -36.387489    0.654631    6.982569    0.875430    3.273105    6.971741    0.557303    4.384603    13.303397    8.454603    4.384599    13.303394    8.454607    -2.483786    -1.834533    2.967136    -47.541176    34.077343    -37.375732    -5.487870    -10.588580    -143.497391    -8.299975    -1.163997    8.288552    47.448212    38.866402    -34.355053    -35.000023    -0.000002    -0.000000    -0.000000    0.000000    -0.000000    -0.000004    9.999995    0.000001    -0.000000    0.000000    -0.000000    -0.000000    0.000000    -0.000000    -0.000000    0.000000    -0.000000    -0.000000    0.000000    -0.000000    -0.000000    0.000000    -0.000000    -0.000000    0.000000    -0.000000    -0.000000    0.000000    -0.000000    -0.000000    0.000000    -0.000000    -0.000005    -9.999992    -0.000001    -0.000000    0.000000    -0.000000    -0.000000    0.000000    -0.000000    2.445045    -1.731340    4.963059    46.403587    15.855791    34.923889    -33.386917    -15.276292    70.648628    1.256042    -1.133984    -51.936188    -47.448189    38.866386    34.355034    35.000023    -0.000000    0.000000    -0.000000    0.000000    -0.000000    0.000003    9.999991    0.000001    -0.000000    0.000000    -0.000000    -0.000000    0.000000    -0.000000    -0.000000    0.000000    -0.000000    -0.000000    0.000000    -0.000000    -0.000000    0.000000    -0.000000    -0.000000    0.000000    -0.000000    -0.000000    0.000000    -0.000000    -0.000000    0.000000    -0.000000    0.000004    -9.999997    0.000002    -0.000000    0.000000    -0.000000    -0.000000    0.000000    -0.000000    4.454512    -14.473850    1.431625    -0.000000    52.997551    0.000002    -8.406410    -39.055542    15.265490    0.000001    0.447550    0.000005    -22.270973    -20.691044    -0.253416    0.000003    34.529613    -0.000003    20.016758    -12.087285    -1.883170    -0.000000    1.822982    0.000009    
31.497717    87.873650    216.714142    -0.350468    -1.627228    -36.221725    0.656394    6.952942    1.159478    3.281916    6.942103    0.841837    4.396073    13.160930    8.161957    4.396068    13.160924    8.161952    -2.486902    -1.856787    2.877906    -47.401436    33.909985    -37.571373    -5.504305    -10.601473    -143.555603    -8.480145    -1.184724    8.249418    47.448193    38.866398    -34.355030    -35.000015    -0.000000    -0.000003    -0.000000    0.000000    -0.000000    -0.000000    9.999985    0.000003    -0.000000    0.000000    -0.000000    -0.000000    0.000000    -0.000000    -0.000000    0.000000    -0.000000    -0.000000    0.000000    -0.000000    -0.000000    0.000000    -0.000000    -0.000000    0.000000    -0.000000    -0.000000    0.000000    -0.000000    -0.000000    0.000000    -0.000000    0.000003    -9.999995    -0.000001    -0.000000    0.000000    -0.000000    -0.000000    0.000000    -0.000000    2.403865    -1.899418    5.272294    45.876537    15.013781    35.474575    -32.200771    -15.215971    70.529968    0.599121    -0.309925    -51.582958    -47.448204    38.866394    34.355045    35.000023    -0.000003    0.000001    -0.000000    0.000000    -0.000000    0.000004    9.999989    0.000003    -0.000000    0.000000    -0.000000    -0.000000    0.000000    -0.000000    -0.000000    0.000000    -0.000000    -0.000000    0.000000    -0.000000    -0.000000    0.000000    -0.000000    -0.000000    0.000000    -0.000000    -0.000000    0.000000    -0.000000    -0.000000    0.000000    -0.000000    0.000003    -9.999999    0.000001    -0.000000    0.000000    -0.000000    -0.000000    0.000000    -0.000000    4.423852    -14.604633    1.471703    -0.000006    52.791351    0.000006    -8.459177    -38.891144    15.079487    -0.000000    0.458327    -0.000003    -22.326487    -20.623873    -0.265815    -0.000000    34.188786    -0.000002    19.991831    -11.931681    -2.152977    -0.000000    1.831504    -0.000002    
31.588959    87.942436    216.672485    -0.246946    -1.546363    -36.048115    0.657209    6.921131    1.441517    3.285993    6.910312    1.124943    4.428333    13.025741    7.853275    4.428335    13.025745    7.853280    -2.501204    -1.873058    2.786997    -47.273918    33.745697    -37.756523    -5.490416    -10.630715    -143.585938    -8.659654    -1.202191    8.193114    47.448193    38.866394    -34.355038    -35.000023    0.000000    0.000001    -0.000000    0.000000    -0.000000    -0.000004    9.999994    0.000001    -0.000000    0.000000    -0.000000    -0.000000    0.000000    -0.000000    -0.000000    0.000000    -0.000000    -0.000000    0.000000    -0.000000    -0.000000    0.000000    -0.000000    -0.000000    0.000000    -0.000000    -0.000000    0.000000    -0.000000    -0.000000    0.000000    -0.000000    -0.000002    -9.999991    0.000002    -0.000000    0.000000    -0.000000    -0.000000    0.000000    -0.000000    2.444822    -2.095731    5.587174    45.449184    14.142618    35.987675    -31.198702    -15.134798    70.339478    -0.092188    0.539341    -51.265919    -47.448196    38.866394    34.355042    35.000023    -0.000002    -0.000003    -0.000000    0.000000    -0.000000    0.000003    9.999991    0.000002    -0.000000    0.000000    -0.000000    -0.000000    0.000000    -0.000000    -0.000000    0.000000    -0.000000    -0.000000    0.000000    -0.000000    -0.000000    0.000000    -0.000000    -0.000000    0.000000    -0.000000    -0.000000    0.000000    -0.000000    -0.000000    0.000000    -0.000000    0.000001    -9.999993    0.000000    -0.000000    0.000000    -0.000000    -0.000000    0.000000    -0.000000    4.390244    -14.732337    1.500162    0.000004    52.579529    -0.000008    -8.522570    -38.726761    14.891807    0.000000    0.458369    0.000001    -22.382393    -20.552593    -0.283491    -0.000004    33.850132    0.000001    19.963480    -11.783440    -2.427103    0.000000    1.840097    -0.000005    
